<svg width="334" height="71" viewBox="0 0 334 71" fill="none" xmlns="http://www.w3.org/2000/svg">
    <path
        d="M61.4081 8.84812C55.4175 2.9475 46.305 0 35.1281 0C23.9512 0 14.8219 2.9475 8.85375 8.84812C2.88562 14.7487 0 23.9569 0 35.1281C0 46.2994 2.9475 55.4344 8.85375 61.4081C14.76 67.3819 23.9569 70.2619 35.1281 70.2619C46.2994 70.2619 55.4344 67.3087 61.4081 61.4081C67.3819 55.5075 70.2619 46.2994 70.2619 35.1281C70.2619 23.9569 67.3087 14.8219 61.4081 8.84812Z"
        fill="white" />
    <path
        d="M57.6169 41.4165C57.4481 40.6178 57.2625 39.8359 57.0544 39.054C56.4919 37.8053 51.9131 28.1078 43.7681 24.9465C38.5425 23.0396 35.1956 23.5121 33.2719 24.294C34.2574 23.979 35.3098 23.9371 36.3172 24.1729C37.3246 24.4086 38.2491 24.9132 38.9925 25.6328C42.8859 29.203 45.5648 33.9018 46.6538 39.0709C46.7946 39.7467 46.8099 40.4427 46.6988 41.124C46.5525 43.1153 45.3712 46.4678 40.1906 50.2928C33.0131 55.3553 22.0106 54.4609 19.8281 54.2303L20.205 54.3596C29.8783 57.3934 40.2485 57.3934 49.9219 54.3596C52.5823 53.5423 54.8436 51.7646 56.2659 49.3723C57.6881 46.98 58.1697 44.1442 57.6169 41.4165V41.4165Z"
        fill="#0052A3" />
    <path
        d="M42.705 15.2605C40.6214 13.3401 37.8915 12.2739 35.0578 12.2739C32.2242 12.2739 29.4943 13.3401 27.4106 15.2605C26.8481 15.7499 26.3531 16.2561 25.8356 16.7736C24.615 18.523 19.1588 26.8986 20.4075 35.0942C21.8644 43.4642 25.9369 45.2192 27.0506 45.5736C25.7821 45.0872 24.7269 44.1673 24.072 42.977C23.4171 41.7867 23.205 40.4029 23.4731 39.0711C24.5595 33.9007 27.2364 29.1998 31.1288 25.6274C31.2882 25.4794 31.4573 25.3422 31.635 25.2167C32.1337 24.8311 32.6849 24.5185 33.2719 24.2886C35.0719 23.5573 38.1094 23.1017 42.7669 24.598L42.8569 24.6317C43.155 24.7274 43.4588 24.8286 43.7681 24.9411C51.9131 28.1024 56.4919 37.7998 57.0544 39.0486C54.6503 29.9077 49.6694 21.6505 42.705 15.2605V15.2605Z"
        fill="#FFBBBB" />
    <path
        d="M40.1906 50.2928C45.3712 46.4678 46.5525 43.1153 46.6987 41.1241C46.5206 42.1837 46.0527 43.1734 45.3468 43.9835C44.641 44.7936 43.7247 45.3926 42.6994 45.7141C37.7277 47.2704 32.3992 47.2704 27.4275 45.7141L27.0506 45.5735C25.9256 45.2416 21.8644 43.4641 20.4075 35.0941C19.1587 26.8872 24.615 18.5285 25.8356 16.7622C19.1016 23.511 14.4723 32.07 12.51 41.3997C11.9738 44.0572 12.4194 46.819 13.764 49.1731C15.1086 51.5272 17.2611 53.314 19.8225 54.2022C22.0106 54.4497 33.0131 55.3778 40.1906 50.2928Z"
        fill="#00B3E3" />
    <path
        d="M95.6081 21.6676C95.5648 21.5208 95.5365 21.37 95.5237 21.2176C95.5237 20.7226 95.8275 20.4751 96.435 20.4751H99.3994C99.7543 20.4362 100.112 20.5153 100.417 20.7001C100.646 20.98 100.801 21.3126 100.867 21.6676L107.167 43.5713L113.468 21.6676C113.534 21.3126 113.689 20.98 113.917 20.7001C114.226 20.5129 114.588 20.4337 114.947 20.4751H117.793C118.395 20.4751 118.699 20.7226 118.699 21.2176C118.686 21.37 118.658 21.5208 118.614 21.6676L110.267 49.0501C110.239 49.178 110.184 49.2986 110.107 49.4042C110.029 49.5098 109.93 49.598 109.817 49.6632C109.539 49.7596 109.245 49.8016 108.951 49.7869H105.283C104.991 49.802 104.699 49.76 104.422 49.6632C104.307 49.6001 104.206 49.5125 104.127 49.4067C104.049 49.3008 103.994 49.1791 103.967 49.0501L95.6081 21.6676Z"
        fill="white" />
    <path
        d="M127.271 48.5946C127.295 48.7657 127.283 48.9399 127.236 49.1063C127.19 49.2727 127.11 49.4278 127.001 49.5621C126.686 49.7486 126.319 49.8276 125.955 49.7871H123.564C123.2 49.8276 122.833 49.7486 122.518 49.5621C122.409 49.4278 122.329 49.2727 122.283 49.1063C122.237 48.9399 122.225 48.7657 122.248 48.5946V21.6677C122.225 21.4965 122.237 21.3224 122.283 21.156C122.329 20.9896 122.409 20.8345 122.518 20.7002C122.833 20.5137 123.2 20.4347 123.564 20.4752H125.955C126.319 20.4347 126.686 20.5137 127.001 20.7002C127.11 20.8345 127.19 20.9896 127.236 21.156C127.283 21.3224 127.295 21.4965 127.271 21.6677V48.5946Z"
        fill="white" />
    <path
        d="M130.894 21.6673C130.85 21.5206 130.822 21.3698 130.809 21.2173C130.809 20.7223 131.113 20.4748 131.715 20.4748H134.679C135.038 20.4317 135.401 20.511 135.709 20.6998C135.939 20.9791 136.096 21.3118 136.164 21.6673L142.464 43.5711L148.793 21.6673C148.859 21.3124 149.014 20.9798 149.243 20.6998C149.551 20.5126 149.913 20.4335 150.272 20.4748H153.113C153.72 20.4748 154.018 20.7223 154.018 21.2173C154.005 21.3694 153.979 21.52 153.939 21.6673L145.553 49.0498C145.523 49.1781 145.468 49.2989 145.389 49.4045C145.311 49.5101 145.211 49.5981 145.097 49.663C144.821 49.7598 144.528 49.8018 144.236 49.7867H140.569C140.275 49.8014 139.981 49.7594 139.703 49.663C139.588 49.5986 139.489 49.5107 139.411 49.4049C139.334 49.2992 139.28 49.1782 139.253 49.0498L130.894 21.6673Z"
        fill="white" />
    <path
        d="M175.567 48.4707C175.604 48.8362 175.525 49.204 175.343 49.5226C175.208 49.6302 175.052 49.7092 174.886 49.7547C174.72 49.8001 174.546 49.8111 174.375 49.7869H158.85C158.484 49.8266 158.116 49.7477 157.798 49.5619C157.692 49.4265 157.613 49.2711 157.568 49.105C157.522 48.9388 157.511 48.7652 157.534 48.5944V21.6675C157.51 21.4972 157.521 21.3238 157.565 21.1576C157.61 20.9915 157.687 20.8359 157.792 20.7C158.11 20.5142 158.479 20.4353 158.844 20.475H174.201C174.371 20.4519 174.545 20.4633 174.711 20.5087C174.878 20.5542 175.033 20.6326 175.168 20.7394C175.358 21.0555 175.439 21.4249 175.399 21.7913V23.6026C175.439 23.969 175.358 24.3384 175.168 24.6544C175.034 24.7624 174.878 24.8416 174.712 24.887C174.545 24.9325 174.371 24.9433 174.201 24.9188H162.557V32.5125H173.137C173.309 32.4891 173.483 32.501 173.649 32.5475C173.816 32.5939 173.971 32.6739 174.105 32.7826C174.292 33.0977 174.37 33.4649 174.33 33.8288V35.64C174.37 36.0057 174.291 36.3745 174.105 36.6919C173.971 36.8006 173.816 36.8806 173.649 36.927C173.483 36.9734 173.309 36.9853 173.137 36.9619H162.557V45.36H174.369C174.54 45.3372 174.714 45.3488 174.88 45.3942C175.046 45.4396 175.201 45.5179 175.337 45.6244C175.519 45.9433 175.598 46.3108 175.562 46.6763L175.567 48.4707Z"
        fill="white" />
    <path
        d="M190.305 49.7871C189.941 49.8276 189.574 49.7486 189.259 49.5621C189.15 49.4278 189.07 49.2727 189.024 49.1063C188.977 48.9399 188.965 48.7657 188.989 48.5946V21.6677C188.965 21.4965 188.977 21.3224 189.024 21.156C189.07 20.9896 189.15 20.8345 189.259 20.7002C189.574 20.5137 189.941 20.4347 190.305 20.4752H199.778C202.714 20.4752 204.938 21.0996 206.449 22.3483C207.96 23.5971 208.71 25.4421 208.699 27.8833V28.4458C208.739 29.8219 208.345 31.1757 207.574 32.3158C206.9 33.3263 205.883 34.0578 204.711 34.3746C206.009 34.7084 207.139 35.5096 207.883 36.6246C208.722 37.854 209.153 39.3161 209.115 40.804V41.4677C209.115 44.5127 208.245 46.6671 206.505 47.9308C204.765 49.1946 202.245 49.8246 198.945 49.8208L190.305 49.7871ZM193.927 32.3496H199.446C200.848 32.3496 201.885 32.0758 202.556 31.5283C203.226 30.9658 203.563 30.0883 203.563 28.8508V28.2883C203.607 27.7837 203.533 27.2758 203.348 26.8044C203.162 26.333 202.87 25.911 202.494 25.5715C201.778 24.9902 200.653 24.7015 199.119 24.7052H193.927V32.3496ZM193.927 45.4839H199.119C200.364 45.5585 201.6 45.2269 202.641 44.539C203.473 43.909 203.895 42.8515 203.895 41.3665V40.5452C203.945 39.9903 203.871 39.4312 203.679 38.9083C203.486 38.3855 203.18 37.9118 202.782 37.5217C202.385 37.1315 201.905 36.8345 201.379 36.6521C200.852 36.4697 200.292 36.4065 199.738 36.4671H193.927V45.4839Z"
        fill="white" />
    <path
        d="M217.98 31.3874C218.469 30.4657 219.193 29.6895 220.078 29.1374C220.958 28.551 221.991 28.2361 223.048 28.2318H223.954C224.246 28.1963 224.541 28.2771 224.775 28.4568C224.945 28.7346 225.018 29.061 224.983 29.3849V31.6349C225.018 31.9588 224.945 32.2852 224.775 32.563C224.541 32.7427 224.246 32.8235 223.954 32.788H222.801C222.166 32.7632 221.532 32.8732 220.943 33.1107C220.354 33.3483 219.821 33.708 219.381 34.1662C218.933 34.6575 218.586 35.2323 218.36 35.8577C218.134 36.4831 218.034 37.1469 218.064 37.8112V48.6393C218.103 48.9741 218.014 49.3112 217.817 49.5843C217.502 49.7927 217.123 49.8805 216.748 49.8318H214.498C214.124 49.8816 213.744 49.7936 213.429 49.5843C213.229 49.3124 213.141 48.9743 213.182 48.6393V29.4074C213.141 29.0724 213.229 28.7342 213.429 28.4624C213.745 28.2559 214.124 28.1682 214.498 28.2149H216.681C217.055 28.1692 217.433 28.2568 217.749 28.4624C217.95 28.7342 218.038 29.0724 217.997 29.4074L217.98 31.3874Z"
        fill="white" />
    <path
        d="M236.424 50.3664C233.454 50.3664 231.159 49.5676 229.523 47.9757C227.886 46.3839 227.076 44.1339 227.076 41.2257V37.1926C227.076 34.1739 227.891 31.8264 229.523 30.1501C231.159 28.4626 233.46 27.6357 236.424 27.6357C239.389 27.6357 241.684 28.4345 243.321 30.0264C244.957 31.6182 245.768 33.8682 245.768 36.7764V40.8151C245.768 43.8376 244.952 46.1832 243.321 47.852C241.689 49.5207 239.391 50.3589 236.424 50.3664ZM236.424 46.2095C239.383 46.2095 240.864 44.3345 240.868 40.5845V37.3726C240.868 33.6414 239.387 31.7664 236.424 31.7476C233.462 31.7289 231.979 33.6039 231.975 37.3726V40.5845C231.975 44.3345 233.458 46.2095 236.424 46.2095Z"
        fill="white" />
    <path
        d="M263.677 29.0365C263.994 29.0156 264.311 29.0656 264.606 29.1828C264.84 29.3727 264.995 29.6437 265.039 29.9421L268.492 44.6403L271.98 29.3684C272.031 29.0153 272.197 28.6889 272.453 28.4403C272.731 28.2707 273.055 28.192 273.381 28.2153H275.974C276.632 28.2153 276.964 28.4628 276.964 28.9578C276.964 28.9578 276.964 29.1321 276.879 29.4078L271.53 48.9659C271.418 49.3484 271.277 49.5846 271.097 49.6634C270.799 49.765 270.483 49.807 270.169 49.7871H266.878C266.556 49.8056 266.234 49.7636 265.927 49.6634C265.736 49.5846 265.601 49.3484 265.517 48.9659L262.417 34.7628L259.245 48.9659C259.166 49.3484 259.026 49.5846 258.834 49.6634C258.53 49.7637 258.209 49.8057 257.889 49.7871H254.717C254.404 49.8076 254.091 49.7655 253.794 49.6634C253.614 49.5846 253.468 49.3484 253.361 48.9659L248.006 29.4078C247.972 29.2592 247.946 29.109 247.927 28.9578C247.927 28.4628 248.254 28.2153 248.912 28.2153H251.505C251.673 28.1854 251.845 28.1918 252.009 28.2339C252.174 28.276 252.328 28.353 252.461 28.4596C252.594 28.5661 252.702 28.6998 252.779 28.8518C252.855 29.0037 252.899 29.1702 252.906 29.3403L256.365 44.5728L259.909 29.914C259.949 29.628 260.079 29.3622 260.28 29.1546C260.549 29.0312 260.846 28.9808 261.141 29.0084L263.677 29.0365Z"
        fill="white" />
    <path
        d="M287.477 50.3664C284.237 50.3664 281.863 49.652 280.356 48.2232C279.827 47.7304 279.409 47.1301 279.132 46.4625C278.854 45.795 278.723 45.0758 278.747 44.3532C278.747 43.7514 279.118 43.4476 279.872 43.4476H282.42C283.084 43.4476 283.455 43.712 283.545 44.2295C283.583 44.5906 283.701 44.9388 283.889 45.2491C284.078 45.5593 284.333 45.8239 284.636 46.0239C285.482 46.4549 286.429 46.6492 287.376 46.5864C288.664 46.5864 289.586 46.4007 290.132 46.0239C290.419 45.8086 290.645 45.5233 290.79 45.1953C290.935 44.8673 290.993 44.5076 290.959 44.1507C290.97 43.7687 290.913 43.3878 290.79 43.0257C290.677 42.7124 290.483 42.4347 290.228 42.2213C289.876 41.9473 289.478 41.7396 289.052 41.6082C288.546 41.4282 287.927 41.2257 287.139 41.0064L284.423 40.3088C280.853 39.3751 279.068 37.4813 279.068 34.6276V34.0651C279.021 33.1605 279.193 32.258 279.571 31.4344C279.948 30.6107 280.518 29.8904 281.233 29.3345C282.673 28.2095 284.683 27.647 287.263 27.647C290.361 27.647 292.639 28.3332 294.098 29.7057C294.595 30.1842 294.987 30.7608 295.249 31.399C295.512 32.0371 295.639 32.7228 295.622 33.4126C295.64 33.5549 295.626 33.6996 295.579 33.8353C295.532 33.9709 295.454 34.0939 295.352 34.1945C295.032 34.367 294.667 34.4395 294.306 34.4026H292.163C291.839 34.4304 291.513 34.3742 291.218 34.2395C291.12 34.157 291.041 34.0556 290.984 33.9415C290.927 33.8275 290.893 33.703 290.886 33.5757C290.664 32.0945 289.361 31.3445 286.976 31.3257C286.127 31.2729 285.282 31.4895 284.563 31.9445C284.286 32.1463 284.064 32.414 283.917 32.7234C283.769 33.0328 283.701 33.3741 283.719 33.7163C283.705 34.0236 283.765 34.3297 283.894 34.6088C284.024 34.8879 284.218 35.1317 284.462 35.3195C285.293 35.8538 286.213 36.2348 287.179 36.4445L290.678 37.3501C294.086 38.2539 295.789 40.202 295.785 43.1945V44.0214C295.828 44.9161 295.655 45.808 295.278 46.621C294.902 47.434 294.335 48.1439 293.625 48.6901C292.163 49.8076 290.113 50.3664 287.477 50.3664Z"
        fill="white" />
    <path
        d="M304.11 40.3201V40.5226C304.11 42.5814 304.446 44.0439 305.117 44.9101C305.788 45.7764 306.913 46.2095 308.492 46.2095C310.494 46.2095 311.715 45.4951 312.154 44.0664C312.234 43.8394 312.389 43.6467 312.594 43.5198C312.798 43.393 313.04 43.3398 313.279 43.3689H315.833C316.175 43.3408 316.518 43.411 316.822 43.5714C316.926 43.6632 317.006 43.7785 317.056 43.9077C317.106 44.0369 317.124 44.1762 317.109 44.3139C317.076 44.9561 316.899 45.5826 316.592 46.1476C316.286 46.7934 315.875 47.3844 315.377 47.897C314.546 48.7318 313.531 49.3599 312.413 49.7307C311.114 50.1685 309.75 50.3834 308.379 50.3664C305.473 50.3664 303.223 49.5489 301.629 47.9139C300.036 46.2789 299.239 43.9257 299.239 40.8545V37.6426C299.239 34.4289 300.028 31.9595 301.607 30.2345C303.186 28.5095 305.456 27.6432 308.419 27.6357C311.381 27.6357 313.618 28.4401 315.129 30.0489C316.641 31.6576 317.391 34.0389 317.379 37.1926V39.1276C317.418 39.4625 317.329 39.7996 317.132 40.0726C316.816 40.2782 316.437 40.3659 316.063 40.3201H304.11ZM308.436 31.5901C306.951 31.5901 305.876 31.9726 305.201 32.7151C304.526 33.4576 304.166 34.7739 304.11 36.5851H312.384C312.384 34.8564 312.077 33.587 311.462 32.777C310.843 31.9951 309.831 31.5901 308.436 31.5901Z"
        fill="white" />
    <path
        d="M326.632 31.3875C327.12 30.4645 327.844 29.6879 328.731 29.1375C329.609 28.5518 330.639 28.2369 331.695 28.2318H332.601C332.895 28.1948 333.192 28.2757 333.427 28.4568C333.595 28.7356 333.666 29.0618 333.63 29.385V31.635C333.666 31.9582 333.595 32.2844 333.427 32.5631C333.192 32.7442 332.895 32.8251 332.601 32.7881H331.476C330.842 32.7641 330.209 32.8745 329.621 33.112C329.033 33.3495 328.501 33.7088 328.061 34.1662C327.613 34.6576 327.266 35.2324 327.041 35.8578C326.815 36.4832 326.714 37.147 326.745 37.8112V48.6393C326.783 48.9742 326.695 49.3113 326.497 49.5844C326.18 49.7927 325.799 49.8805 325.423 49.8318H323.173C322.797 49.8805 322.416 49.7927 322.099 49.5844C321.901 49.3113 321.813 48.9742 321.851 48.6393V29.4075C321.813 29.0726 321.901 28.7355 322.099 28.4625C322.417 28.2569 322.797 28.1693 323.173 28.215H325.356C325.73 28.1692 326.108 28.2569 326.424 28.4625C326.622 28.7355 326.71 29.0726 326.672 29.4075L326.632 31.3875Z"
        fill="white" />
</svg>
